<?xml version="1.0" encoding="utf-8"?>
<!-- Generator: Adobe Illustrator 28.3.0, SVG Export Plug-In . SVG Version: 6.00 Build 0)  -->
<svg version="1.1" id="Layer_1" xmlns="http://www.w3.org/2000/svg" xmlns:xlink="http://www.w3.org/1999/xlink" x="0px" y="0px"
	 viewBox="0 0 40 39.97" style="enable-background:new 0 0 40 39.97;" xml:space="preserve">
<style type="text/css">
	.st0{fill:#27A74A;}
	.st1{opacity:0.91;fill:#FFFFFF;}
</style>
<circle class="st0" cx="20" cy="20" r="20"/>
<path class="st1" d="M19.94,7.7c-6.63,0-12,5.37-12,12H6.33c-0.89,0-1.34,1.06-0.72,1.7l2.91,2.95c0.39,0.4,1.02,0.4,1.42,0.01
	l2.96-2.96c0.63-0.63,0.18-1.7-0.71-1.7h-1.58c0-5.25,4.32-9.48,9.6-9.33c4.87,0.13,8.93,4.19,9.06,9.06
	c0.15,5.28-4.09,9.6-9.33,9.6c-2.25,0-4.32-0.81-5.93-2.15c-0.39-0.32-0.97-0.29-1.33,0.07l-0.48,0.48
	c-0.42,0.42-0.38,1.11,0.07,1.49c2.06,1.73,4.69,2.76,7.6,2.78c6.05,0.03,11.69-5.23,12.05-11.27C32.34,13.47,26.81,7.7,19.94,7.7z
	 M23.54,23.33l-3.42-2.03c-0.3-0.18-0.49-0.51-0.49-0.86V16.3c0-0.53-0.45-0.96-1-0.96c-0.14,0-0.27,0.03-0.39,0.08
	c-0.12,0.05-0.23,0.12-0.32,0.21c-0.09,0.09-0.16,0.2-0.21,0.32c-0.03,0.06-0.05,0.12-0.06,0.19c-0.02,0.05-0.02,0.1-0.02,0.16v5.14
	c0,0.35,0.19,0.68,0.49,0.86l4.36,2.58c0.48,0.28,1.09,0.13,1.37-0.35c0.08-0.14,0.12-0.29,0.12-0.44
	C23.97,23.79,23.82,23.5,23.54,23.33z"/>
</svg>
